<svg id="图层_1" data-name="图层 1" xmlns="http://www.w3.org/2000/svg" viewBox="0 0 614.56 614.44"><title>ios-apps</title><path d="M535.44-39.16l-239-109c-25.92-11.84-68.32-11.84-94.24,0l-238.88,109c-28.16,12.8-28.16,33.76,0,46.56l236.8,108c27,12.32,71.52,12.32,98.56,0l236.8-108c28.16-12.8,28.16-33.76,0-46.56ZM200.08,341,40.4,268.2a26,26,0,0,0-21.28,0l-55.84,25.44c-28.16,12.8-28.16,33.76,0,46.56l236.8,108c27,12.32,71.52,12.32,98.56,0l236.8-108c28.16-12.8,28.16-33.76,0-46.56L479.6,268.2a26,26,0,0,0-21.28,0L298.64,341c-27,12.32-71.52,12.32-98.56,0Zm0,0" transform="translate(58 157)"/><path d="M535.44,127.24l-50.72-23a25.6,25.6,0,0,0-21.12,0L290.8,182.44c-24.48,8.32-58.56,8.32-83,0L35,104.2a25.6,25.6,0,0,0-21.12,0l-50.72,23C-65,140-65,161-36.88,173.8l236.8,108c27,12.32,71.52,12.32,98.56,0l236.8-108c28.32-12.8,28.32-33.76.16-46.56Zm0,0" transform="translate(58 157)"/></svg>