<svg id="图层_1" data-name="图层 1" xmlns="http://www.w3.org/2000/svg" viewBox="0 0 614.4 768"><title>ios-copy</title><path d="M402.8-75.6h144a9.63,9.63,0,0,0,9.6-9.6,44.66,44.66,0,0,0-16-34.08L417-222c-7.84-6.56-22.72-11.84-33-11.84A11.82,11.82,0,0,0,372.24-222v116A30.63,30.63,0,0,0,402.8-75.6Zm0,0" transform="translate(58 234)"/><path d="M330.8-106V-234H121.2A51.35,51.35,0,0,0,70-182.8V354.8A51.35,51.35,0,0,0,121.2,406h384a51.35,51.35,0,0,0,51.2-51.2V-34H402.8a72.11,72.11,0,0,1-72-72Zm0,0" transform="translate(58 234)"/><path d="M25.2,399.6V-131.6h-32A51.35,51.35,0,0,0-58-80.4V482.8A51.35,51.35,0,0,0-6.8,534H402.8A51.35,51.35,0,0,0,454,482.8v-32H76.4a51.35,51.35,0,0,1-51.2-51.2Zm0,0" transform="translate(58 234)"/></svg>