<svg id="图层_1" data-name="图层 1" xmlns="http://www.w3.org/2000/svg" viewBox="0 0 512 665.62"><title>ios-water</title><path d="M403.6-25.54c-55-77.76-108-125.6-145.28-154.56a13.68,13.68,0,0,0-16.64-.16c-36.8,27.36-89.76,77.44-144.8,154.4C37.2,57.34-3.92,147.58-5.84,247.58c0,1.92-.16,4-.16,5.92a209,209,0,0,0,17.44,83.36,224.61,224.61,0,0,0,24.32,42.08c45.6,62.4,124.48,103.68,214.08,103.68C391.28,482.62,506,380.06,506,253.5c0-101.92-43.2-195.52-102.4-279ZM266,397.34h-.8c-15.84,0-19.2-22.56-4.16-27.36,72.16-22.72,111.36-61.6,138.24-129.28,5.6-14.24,26.72-10.4,26.88,5v2.24C426,330.46,354.32,397.34,266,397.34Zm0,0" transform="translate(6 183)"/></svg>