<svg id="图层_1" data-name="图层 1" xmlns="http://www.w3.org/2000/svg" viewBox="0 0 614.4 614.56"><title>ios-settings</title><path d="M505.68,150.2A79.07,79.07,0,0,1,556.4,76.44a313.36,313.36,0,0,0-37.92-91.36A80.12,80.12,0,0,1,486.32-8a79.14,79.14,0,0,1-55.84-23,79.12,79.12,0,0,1-16.32-88A312.4,312.4,0,0,0,323-157a79.13,79.13,0,0,1-73.76,50.72A79.13,79.13,0,0,1,175.44-157a313.43,313.43,0,0,0-91.36,37.92,78.89,78.89,0,0,1-16.32,88A78.88,78.88,0,0,1,11.92-8a77.48,77.48,0,0,1-32.16-6.88A320.3,320.3,0,0,0-58,76.6,79,79,0,0,1-7.28,150.36a79.15,79.15,0,0,1-50.56,73.76,313.43,313.43,0,0,0,37.92,91.36A79.33,79.33,0,0,1,67.92,331.8a79.14,79.14,0,0,1,16.32,87.84,315.19,315.19,0,0,0,91.36,37.92,78.85,78.85,0,0,1,147.2,0,313.33,313.33,0,0,0,91.36-37.92A79,79,0,0,1,518.32,315.48a315.15,315.15,0,0,0,37.92-91.36,79.44,79.44,0,0,1-50.56-73.92ZM250.64,278a128,128,0,1,1,128-128,128,128,0,0,1-128,128Zm0,0" transform="translate(58 157)"/></svg>