<svg id="图层_1" data-name="图层 1" xmlns="http://www.w3.org/2000/svg" viewBox="0 0 654.51 814.89"><title>shuidian</title><path d="M277.48-245.66a40.86,40.86,0,0,0-56.4-.11C119.36-149.15-78,30.33-78,230.63c0,180.74,146.52,327.26,327.26,327.26S576.51,411.37,576.51,230.63c0-200.94-194.83-377.15-299-476.29ZM361,201.55,237.11,374.93c-7.71,10.81-24.77,5.35-24.77-7.93V259.22a13.65,13.65,0,0,0-13.66-13.65h-50A13.65,13.65,0,0,1,137.55,224L261.39,50.59c7.71-10.81,24.77-5.35,24.77,7.93V166.29a13.65,13.65,0,0,0,13.66,13.65h50a13.66,13.66,0,0,1,11.1,21.6Zm0,0" transform="translate(78 257)"/></svg>